Normalized EMG Linear Envelopes
nRows=152
nColumns=4

endheader
time	 med_gas_r	  soleus_r	 tib_ant_r	
2.64819	  0.005259	  0.020737	  0.004805	
2.71976	  0.005485	  0.019896	  0.004724	
2.79133	  0.005661	  0.019008	  0.004676	
2.8629	  0.005816	  0.018174	  0.004693	
2.93448	  0.005960	  0.017832	  0.004766	
3.00605	  0.006068	  0.018140	  0.004855	
3.07762	  0.006212	  0.018509	  0.004921	
3.14919	  0.006472	  0.018358	  0.004934	
3.22077	  0.006699	  0.017797	  0.004902	
3.29234	  0.006668	  0.017329	  0.004880	
3.36391	  0.006439	  0.017277	  0.004907	
3.43548	  0.006302	  0.017682	  0.004968	
3.50706	  0.006392	  0.018411	  0.005023	
3.57863	  0.006517	  0.019076	  0.005009	
3.6502	  0.006421	  0.019288	  0.004880	
3.72177	  0.006145	  0.019134	  0.004670	
3.79335	  0.005962	  0.019040	  0.004504	
3.86492	  0.006031	  0.019303	  0.004471	
3.93649	  0.006313	  0.019947	  0.004545	
4.00806	  0.006647	  0.020871	  0.004661	
4.07964	  0.006756	  0.021633	  0.004804	
4.15121	  0.006482	  0.021316	  0.004949	
4.22278	  0.006046	  0.019811	  0.005052	
4.29435	  0.005801	  0.018479	  0.005116	
4.36593	  0.005846	  0.018393	  0.005173	
4.4375	  0.006074	  0.019229	  0.005213	
4.50907	  0.006301	  0.020082	  0.005179	
4.58065	  0.005997	  0.020070	  0.005025	
4.65222	  0.003951	  0.018641	  0.004754	
4.72379	 -0.001097	  0.016041	  0.004449	
4.79536	 -0.008023	  0.013453	  0.004341	
4.86694	 -0.009243	  0.013726	  0.004914	
4.93851	  0.012350	  0.022679	  0.006841	
5.01008	  0.077594	  0.047621	  0.010516	
5.08165	  0.191638	  0.091131	  0.015456	
5.15323	  0.329806	  0.146656	  0.020432	
5.2248	  0.453294	  0.202918	  0.024477	
5.29637	  0.537772	  0.251396	  0.027460	
5.36794	  0.581708	  0.289724	  0.029566	
5.43952	  0.598802	  0.322701	  0.030964	
5.51109	  0.606277	  0.359535	  0.032059	
5.58266	  0.608718	  0.403462	  0.033232	
5.65423	  0.598015	  0.442471	  0.034441	
5.72581	  0.574585	  0.458077	  0.035616	
5.79738	  0.554149	  0.446586	  0.036884	
5.86895	  0.551530	  0.424099	  0.038105	
5.94052	  0.569736	  0.411279	  0.038997	
6.0121	  0.600925	  0.420345	  0.039755	
6.08367	  0.629831	  0.449273	  0.041034	
6.15524	  0.643112	  0.484656	  0.043282	
6.22681	  0.640680	  0.518991	  0.046345	
6.29839	  0.633540	  0.558158	  0.049663	
6.36996	  0.632930	  0.603926	  0.052598	
6.44153	  0.645339	  0.641250	  0.054634	
6.5131	  0.667615	  0.650335	  0.055211	
6.58468	  0.681586	  0.626189	  0.053958	
6.65625	  0.668653	  0.585012	  0.051727	
6.72782	  0.633563	  0.553553	  0.050070	
6.7994	  0.597067	  0.546498	  0.049320	
6.87097	  0.569304	  0.555396	  0.048650	
6.94254	  0.550869	  0.569572	  0.047698	
7.01411	  0.550493	  0.592762	  0.046887	
7.08569	  0.575029	  0.623341	  0.046480	
7.15726	  0.606242	  0.641464	  0.046073	
7.22883	  0.614344	  0.632218	  0.045159	
7.3004	  0.594493	  0.602457	  0.043910	
7.37198	  0.567140	  0.568969	  0.043081	
7.44355	  0.546267	  0.546082	  0.043268	
7.51512	  0.528645	  0.542327	  0.044418	
7.58669	  0.510729	  0.557039	  0.045638	
7.65827	  0.497993	  0.581454	  0.045524	
7.72984	  0.496167	  0.604869	  0.043516	
7.80141	  0.503900	  0.619027	  0.040918	
7.87298	  0.514299	  0.622009	  0.039817	
7.94456	  0.517928	  0.621602	  0.040770	
8.01613	  0.509595	  0.625041	  0.042308	
8.0877	  0.496828	  0.622229	  0.042961	
8.15927	  0.493147	  0.598191	  0.042706	
8.23085	  0.503562	  0.564193	  0.042226	
8.30242	  0.527538	  0.552561	  0.041999	
8.37399	  0.563409	  0.580307	  0.042205	
8.44556	  0.598937	  0.635416	  0.042575	
8.51714	  0.618956	  0.691932	  0.042820	
8.58871	  0.623454	  0.730755	  0.043428	
8.66028	  0.619133	  0.753851	  0.044843	
8.73185	  0.607956	  0.774242	  0.046031	
8.80343	  0.594883	  0.790904	  0.045386	
8.875	  0.583690	  0.785154	  0.042678	
8.94657	  0.565241	  0.744175	  0.039016	
9.01815	  0.533039	  0.681013	  0.035738	
9.08972	  0.499110	  0.623957	  0.034011	
9.16129	  0.476334	  0.591493	  0.034581	
9.23286	  0.461871	  0.583955	  0.037135	
9.30444	  0.450757	  0.588140	  0.040378	
9.37601	  0.449569	  0.588029	  0.043364	
9.44758	  0.463631	  0.578915	  0.045824	
9.51915	  0.483158	  0.567313	  0.047134	
9.59073	  0.493358	  0.559162	  0.046794	
9.6623	  0.488446	  0.556087	  0.045539	
9.73387	  0.471752	  0.556289	  0.044428	
9.80544	  0.449882	  0.550094	  0.043574	
9.87702	  0.427908	  0.525709	  0.042346	
9.94859	  0.407613	  0.488073	  0.040151	
10.0202	  0.387770	  0.460335	  0.037038	
10.0917	  0.368473	  0.462665	  0.033915	
10.1633	  0.358582	  0.494892	  0.031950	
10.2349	  0.369016	  0.537924	  0.031648	
10.3065	  0.395340	  0.569329	  0.032448	
10.378	  0.419377	  0.575179	  0.033281	
10.4496	  0.428764	  0.553301	  0.033507	
10.5212	  0.425714	  0.517379	  0.033265	
10.5927	  0.419751	  0.489383	  0.033221	
10.6643	  0.421021	  0.478038	  0.033984	
10.7359	  0.438428	  0.478667	  0.035533	
10.8075	  0.469638	  0.490395	  0.037133	
10.879	  0.488982	  0.508563	  0.037734	
10.9506	  0.468707	  0.512338	  0.036723	
11.0222	  0.418279	  0.486278	  0.034442	
11.0937	  0.376332	  0.444495	  0.032059	
11.1653	  0.365924	  0.417283	  0.030925	
11.2369	  0.377327	  0.421117	  0.031358	
11.3085	  0.383868	  0.449224	  0.032099	
11.38	  0.362601	  0.476442	  0.031600	
11.4516	  0.308579	  0.472047	  0.029373	
11.5232	  0.237933	  0.430555	  0.025994	
11.5948	  0.176269	  0.380866	  0.022501	
11.6663	  0.139196	  0.349771	  0.019649	
11.7379	  0.124121	  0.338598	  0.017562	
11.8095	  0.120853	  0.340440	  0.016073	
11.881	  0.121606	  0.352335	  0.014966	
11.9526	  0.120514	  0.367186	  0.013943	
12.0242	  0.115081	  0.375489	  0.012852	
12.0958	  0.108417	  0.374701	  0.011859	
12.1673	  0.103182	  0.365928	  0.011153	
12.2389	  0.096588	  0.350464	  0.010700	
12.3105	  0.084750	  0.332527	  0.010653	
12.3821	  0.068231	  0.317175	  0.011949	
12.4536	  0.051560	  0.309419	  0.015608	
12.5252	  0.038667	  0.313377	  0.021028	
12.5968	  0.029831	  0.324301	  0.026208	
12.6683	  0.023564	  0.329854	  0.029703	
12.7399	  0.019522	  0.322952	  0.031275	
12.8115	  0.017846	  0.305313	  0.031854	
12.8831	  0.017571	  0.284179	  0.033478	
12.9546	  0.017331	  0.270822	  0.037539	
13.0262	  0.016749	  0.272888	  0.043120	
13.0978	  0.016501	  0.286592	  0.048385	
13.1694	  0.017281	  0.300212	  0.053028	
13.2409	  0.018875	  0.303443	  0.057688	
13.3125	  0.020388	  0.297712	  0.062876	
13.3841	  0.021202	  0.297147	  0.070109	
13.4556	  0.021425	  0.309188	  0.080186	
